<mxfile host="app.diagrams.net" modified="2023-12-02T11:13:57.239Z" agent="Mozilla/5.0 (Windows NT 10.0; Win64; x64) AppleWebKit/537.36 (KHTML, like Gecko) Chrome/107.0.0.0 Safari/537.36" version="22.1.5" etag="BJscOwo6J52XZbnBeN3B" type="github">
  <diagram name="第 1 页" id="JHLz7psbimozCQ6AW1Iy">
    <mxGraphModel>
      <root>
        <mxCell id="0" />
        <mxCell id="1" parent="0" />
      </root>
    </mxGraphModel>
  </diagram>
</mxfile>
